# This file uses meters as units for non-parametric coordinates.

mtllib Microtubule1.mtl
g default
v -55.527405 -6.251751 -167.514389
v -55.498466 -6.799911 -167.610214
v 57.693504 4.716877 -196.075363
v 57.722435 4.168720 -196.171158
v 57.551048 4.802330 -196.607239
v 57.579987 4.254173 -196.703064
v -55.669853 -6.166298 -168.046265
v -55.640923 -6.714455 -168.142090
v 43.650368 3.395294 -192.755341
v 43.507919 3.480747 -193.287216
v 43.536854 2.932590 -193.383026
v 43.679306 2.847137 -192.851166
v 32.784958 2.037073 -189.639633
v 32.642502 2.122524 -190.171524
v 32.671436 1.574368 -190.267334
v 32.813885 1.488914 -189.735458
v 19.729362 1.114991 -187.356659
v 19.586906 1.200445 -187.888550
v 19.615845 0.652288 -187.984375
v 19.758297 0.566835 -187.452484
v 6.113945 0.309952 -187.731140
v 5.971493 0.395405 -188.263062
v 6.000427 -0.152752 -188.358826
v 6.142876 -0.238205 -187.826965
v -7.162399 -1.297483 -187.218765
v -7.304855 -1.212030 -187.750610
v -7.275928 -1.760187 -187.846436
v -7.133465 -1.845641 -187.314575
v -19.171751 -2.154379 -181.892044
v -19.314199 -2.068926 -182.423950
v -19.285263 -2.617082 -182.519775
v -19.142822 -2.702538 -181.987854
v -30.583466 -4.167686 -174.789459
v -30.725922 -4.082232 -175.321350
v -30.696999 -4.630390 -175.417160
v -30.554543 -4.715843 -174.885269
v -42.658081 -5.083939 -169.560867
v -42.800529 -4.998486 -170.092758
v -42.771599 -5.546642 -170.188568
v -42.629150 -5.632099 -169.656677
vt 0.375000 0.000000
vt 0.625000 0.000000
vt 0.375000 0.250000
vt 0.625000 0.250000
vt 0.375000 0.500000
vt 0.625000 0.500000
vt 0.375000 0.750000
vt 0.625000 0.750000
vt 0.375000 1.000000
vt 0.625000 1.000000
vt 0.875000 0.000000
vt 0.875000 0.250000
vt 0.125000 0.000000
vt 0.125000 0.250000
vt 0.375000 0.222222
vt 0.125000 0.222222
vt 0.375000 0.527778
vt 0.625000 0.527778
vt 0.875000 0.222222
vt 0.625000 0.222222
vt 0.375000 0.194444
vt 0.125000 0.194444
vt 0.375000 0.555556
vt 0.625000 0.555556
vt 0.875000 0.194444
vt 0.625000 0.194444
vt 0.375000 0.166667
vt 0.125000 0.166667
vt 0.375000 0.583333
vt 0.625000 0.583333
vt 0.875000 0.166667
vt 0.625000 0.166667
vt 0.375000 0.138889
vt 0.125000 0.138889
vt 0.375000 0.611111
vt 0.625000 0.611111
vt 0.875000 0.138889
vt 0.625000 0.138889
vt 0.375000 0.111111
vt 0.125000 0.111111
vt 0.375000 0.638889
vt 0.625000 0.638889
vt 0.875000 0.111111
vt 0.625000 0.111111
vt 0.375000 0.083333
vt 0.125000 0.083333
vt 0.375000 0.666667
vt 0.625000 0.666667
vt 0.875000 0.083333
vt 0.625000 0.083333
vt 0.375000 0.055556
vt 0.125000 0.055556
vt 0.375000 0.694445
vt 0.625000 0.694445
vt 0.875000 0.055556
vt 0.625000 0.055556
vt 0.375000 0.027778
vt 0.125000 0.027778
vt 0.375000 0.722222
vt 0.625000 0.722222
vt 0.875000 0.027778
vt 0.625000 0.027778
vn 0.044178 0.594559 0.802838
vn 0.132254 -0.826533 0.547131
vn 0.237799 -0.772692 0.588557
vn 0.185708 0.564785 0.804071
vn 0.161121 0.584759 0.795045
vn 0.234189 -0.799539 0.553076
vn -0.106574 -0.587058 -0.802499
vn -0.180305 0.809784 -0.558336
vn -0.217710 0.829779 -0.513877
vn -0.174991 -0.612913 -0.770530
vn -0.110923 -0.561974 -0.819684
vn -0.195824 0.787015 -0.585030
vn -0.229146 0.800093 -0.554385
vn 0.140167 0.595433 0.791083
vn -0.145315 -0.578493 -0.802639
vn 0.228103 -0.805647 0.546719
vn -0.200828 0.812881 -0.546710
vn 0.129772 0.565857 0.814227
vn -0.120344 -0.603742 -0.788044
vn 0.204215 -0.797411 0.567831
vn -0.094003 0.828907 -0.551431
vn 0.025354 0.547201 0.836617
vn -0.018413 -0.592380 -0.805448
vn 0.093662 -0.787820 0.608742
vn -0.077370 0.806549 -0.586082
vn -0.045401 0.574470 0.817265
vn 0.046182 -0.541007 -0.839749
vn 0.073849 -0.811560 0.579583
vn -0.215508 0.756423 -0.617561
vn 0.119354 0.614881 0.779536
vn -0.137407 -0.550311 -0.823576
vn 0.197716 -0.845461 0.496089
vn -0.366966 0.771767 -0.519338
vn 0.304388 0.620592 0.722643
vn -0.333458 -0.566810 -0.753347
vn 0.363955 -0.786814 0.498457
vn -0.362184 0.788286 -0.497422
vn 0.328821 0.566597 0.755543
vn -0.300081 -0.620827 -0.724241
vn 0.366849 -0.770616 0.521126
s 1
g Microtubules MicroTubule1 MicroTubules_Group Cell
usemtl blinn37SG
f 1/1/1 2/2/2 40/62/3 37/57/4
f 3/3/5 4/4/6 6/6/7 5/5/8
f 38/59/9 39/60/10 8/8/11 7/7/12
f 7/7/12 8/8/11 2/10/2 1/9/1
f 2/2/2 8/11/11 39/61/10 40/62/3
f 7/13/12 1/1/1 37/57/4 38/58/9
f 10/16/13 9/15/14 3/3/5 5/14/8
f 5/5/8 6/6/7 11/18/15 10/17/13
f 12/20/16 11/19/15 6/12/7 4/4/6
f 9/15/14 12/20/16 4/4/6 3/3/5
f 14/22/17 13/21/18 9/15/14 10/16/13
f 10/17/13 11/18/15 15/24/19 14/23/17
f 16/26/20 15/25/19 11/19/15 12/20/16
f 13/21/18 16/26/20 12/20/16 9/15/14
f 18/28/21 17/27/22 13/21/18 14/22/17
f 14/23/17 15/24/19 19/30/23 18/29/21
f 20/32/24 19/31/23 15/25/19 16/26/20
f 17/27/22 20/32/24 16/26/20 13/21/18
f 22/34/25 21/33/26 17/27/22 18/28/21
f 18/29/21 19/30/23 23/36/27 22/35/25
f 24/38/28 23/37/27 19/31/23 20/32/24
f 21/33/26 24/38/28 20/32/24 17/27/22
f 26/40/29 25/39/30 21/33/26 22/34/25
f 22/35/25 23/36/27 27/42/31 26/41/29
f 28/44/32 27/43/31 23/37/27 24/38/28
f 25/39/30 28/44/32 24/38/28 21/33/26
f 30/46/33 29/45/34 25/39/30 26/40/29
f 26/41/29 27/42/31 31/48/35 30/47/33
f 32/50/36 31/49/35 27/43/31 28/44/32
f 29/45/34 32/50/36 28/44/32 25/39/30
f 34/52/37 33/51/38 29/45/34 30/46/33
f 30/47/33 31/48/35 35/54/39 34/53/37
f 36/56/40 35/55/39 31/49/35 32/50/36
f 33/51/38 36/56/40 32/50/36 29/45/34
f 38/58/9 37/57/4 33/51/38 34/52/37
f 34/53/37 35/54/39 39/60/10 38/59/9
f 40/62/3 39/61/10 35/55/39 36/56/40
f 37/57/4 40/62/3 36/56/40 33/51/38
